# xmcd
#
# Track frame offsets: 
#        150
#        3583
#        18461
#        23081
#        27025
#        32975
#        48105
#        53249
#        60056
#        67485
#        83697
#        88309
#        92913
#        105555
#        121214
#        125909
#        135500
#        143106
#        157949
#        163312
#        169553
#        177461
#        192408
#        196476
#        205575
#        211142
#        221634
#        225594
#        231939
#        243523
#        255684
#        260732
#        270011
#        273948
#        288489
#        292861
#        297309
#        304077
#        316840
#        321015
#        324271
#
# Disc length: 4431 seconds
#
# Revision: 2
# Processed by: cddbd v1.5.2PL0 Copyright (c) Steve Scherf et al.
# Submitted via: ExactAudioCopy v0.95b4
#
DISCID=4f114d29
DTITLE=Langenscheidt - Business English - Intensivtraining - CD4 - Ver
DTITLE=handlungen
DYEAR=2002
DGENRE=Foreign Lang. Selfstudy
TTITLE0=Vorspann
TTITLE1=Dialogue 01 - Introducing a new product (Ein neues Produkt vor
TTITLE1=stellen)
TTITLE2=Exercise 01 for Dialogue 01
TTITLE3=Exercise 02 for Dialogue 01
TTITLE4=Exercise 03 for Dialogue 01
TTITLE5=Dialogue 02 - The sales and marketing briefing (Die Verkaufs- 
TTITLE5=u. Marketingbesprechung)
TTITLE6=Exercise 01 for Dialogue 02
TTITLE7=Exercise 02 for Dialogue 02
TTITLE8=Exercise 03 for Dialogue 02
TTITLE9=Dialogue 03 - Launching a new product (Einführung eines neuen 
TTITLE9=Produktes)
TTITLE10=Exercise 01 for Dialogue 03
TTITLE11=Exercise 02 for Dialogue 03
TTITLE12=Exercise 03 for Dialogue 03
TTITLE13=Dialogue 04 - Organising a conference (Eine Konferenz organis
TTITLE13=ieren)
TTITLE14=Exercise 01 for Dialogue 04
TTITLE15=Exercise 02 for Dialogue 04
TTITLE16=Exercise 03 for Dialogue 04
TTITLE17=Dialogue 05 - Making a business proposal (Ein Angebot machen)
TTITLE18=Exercise 01 for Dialogue 05
TTITLE19=Exercise 02 for Dialogue 05
TTITLE20=Exercise 03 for Dialogue 05
TTITLE21=Dialogue 06 - Primary negotiations and setting up a business 
TTITLE21=deal (Vorverhandlungen u. ...)
TTITLE22=Exercise 01 for Dialogue 06
TTITLE23=Exercise 02 for Dialogue 06
TTITLE24=Exercise 03 for Dialogue 06
TTITLE25=Dialogue 07 - Asking for a bank loan (Ein Darlehen beantragen
TTITLE25=)
TTITLE26=Exercise 01 for Dialogue 07
TTITLE27=Exercise 02 for Dialogue 07
TTITLE28=Exercise 03 for Dialogue 07
TTITLE29=Dialogue 08 - Negotiating the business contract (Den Vertrag 
TTITLE29=aushandeln)
TTITLE30=Exercise 01 for Dialogue 08
TTITLE31=Exercise 02 for Dialogue 08
TTITLE32=Exercise 03 for Dialogue 08
TTITLE33=Dialogue 09 - Negotiating a follow-up deal (Ein Folgegeschäft
TTITLE33=verhandeln)
TTITLE34=Exercise 01 for Dialogue 09
TTITLE35=Exercise 02 for Dialogue 09
TTITLE36=Exercise 03 for Dialogue 09
TTITLE37=Dialogue 10 - Post-conference socializing (Ein Umdrunk nach d
TTITLE37=er Messe)
TTITLE38=Exercise 01 for Dialogue 10
TTITLE39=Exercise 02 for Dialogue 10
TTITLE40=Exercise 03 for Dialogue 10
EXTD=
EXTT0=
EXTT1=
EXTT2=
EXTT3=
EXTT4=
EXTT5=
EXTT6=
EXTT7=
EXTT8=
EXTT9=
EXTT10=
EXTT11=
EXTT12=
EXTT13=
EXTT14=
EXTT15=
EXTT16=
EXTT17=
EXTT18=
EXTT19=
EXTT20=
EXTT21=
EXTT22=
EXTT23=
EXTT24=
EXTT25=
EXTT26=
EXTT27=
EXTT28=
EXTT29=
EXTT30=
EXTT31=
EXTT32=
EXTT33=
EXTT34=
EXTT35=
EXTT36=
EXTT37=
EXTT38=
EXTT39=
EXTT40=
PLAYORDER=
